<?xml version="1.0" encoding="utf-8"?>
<!-- Generator: Adobe Illustrator 18.0.0, SVG Export Plug-In . SVG Version: 6.00 Build 0)  -->
<!DOCTYPE svg PUBLIC "-//W3C//DTD SVG 1.1//EN" "http://www.w3.org/Graphics/SVG/1.1/DTD/svg11.dtd">
<svg version="1.1" xmlns="http://www.w3.org/2000/svg" xmlns:xlink="http://www.w3.org/1999/xlink" x="0px" y="0px"
	 viewBox="0 0 110 100" enable-background="new 0 0 110 100" xml:space="preserve">
<g id="Layer_2">
	<circle fill="#FF534D" cx="55.5" cy="49.8" r="38.7"/>
</g>
<g id="Layer_3">
	<path fill="#FFFFFF" d="M78.1,30.4c-1,0.4-52.2,18.4-53.2,18.8c-0.9,0.3-1,1,0,1.4c1.2,0.5,11.4,4.6,11.4,4.6h0l6.8,2.7
		c0,0,32.7-24,33.1-24.3c0.4-0.3,1,0.3,0.6,0.6c-0.3,0.4-23.7,25.7-23.7,25.7c0,0,0,0,0,0l-1.4,1.5l1.8,1v0c0,0,14,7.5,15,8.1
		c0.9,0.5,2,0.1,2.3-1c0.3-1.3,8.6-37,8.8-37.8C79.8,30.7,79.2,30.1,78.1,30.4z M43,74.2c0,0.7,0.4,1,1,0.4c0.8-0.7,8.6-7.7,8.6-7.7
		L43,62V74.2z"/>
</g>
<g id="Layer_1" display="none">
	<g display="inline">
		<path fill="#FFFFFF" d="M42.4,27.8c0,2.8-2.1,5.1-5.5,5.1c-3.2,0-5.3-2.3-5.3-5.1c0-2.9,2.2-5.1,5.4-5.1
			C40.3,22.7,42.3,24.9,42.4,27.8z M31.8,69.9V37h10.2v32.9H31.8z"/>
		<path fill="#FFFFFF" d="M48.2,47.5c0-4.1-0.1-7.5-0.3-10.5h8.9l0.5,4.6h0.2c1.3-2.2,4.6-5.3,10.2-5.3c6.7,0,11.8,4.5,11.8,14.2
			v19.4H69.2V51.6c0-4.2-1.5-7.1-5.2-7.1c-2.8,0-4.5,2-5.2,3.8c-0.3,0.7-0.3,1.6-0.3,2.6v19H48.2V47.5z"/>
	</g>
</g>
</svg>
