<?xml version="1.0" encoding="utf-8"?>
<!-- Generator: Adobe Illustrator 18.0.0, SVG Export Plug-In . SVG Version: 6.00 Build 0)  -->
<!DOCTYPE svg PUBLIC "-//W3C//DTD SVG 1.1//EN" "http://www.w3.org/Graphics/SVG/1.1/DTD/svg11.dtd">
<svg version="1.1" id="Layer_1" xmlns="http://www.w3.org/2000/svg" xmlns:xlink="http://www.w3.org/1999/xlink" x="0px" y="0px"
	 viewBox="0 0 500 500" enable-background="new 0 0 500 500" xml:space="preserve">
<g id="Layer_1_1_" display="none">
	<g display="inline">
		<path fill="#FFFFFF" d="M129.2,81.4c0,25.9-19.1,46.8-50.5,46.8c-29.6,0-48.7-21-48.7-46.8c0-26.5,19.7-46.8,49.9-46.8
			C110.1,34.6,128.6,54.9,129.2,81.4z M32.4,466.6V165.2h93.7v301.4L32.4,466.6L32.4,466.6z"/>
		<path fill="#FFFFFF" d="M182.2,261.4c0-37.6-1.2-69-2.5-96.1H261l4.3,41.9h1.8c12.3-19.7,42.5-48.7,93.1-48.7
			c61.6,0,107.9,41.3,107.9,130v178.1h-93.7v-167c0-38.8-13.6-65.3-47.5-65.3c-25.9,0-41.3,17.9-48.1,35.1
			c-2.5,6.2-3.1,14.8-3.1,23.4v173.8H182V261.4H182.2z"/>
	</g>
</g>
<g id="Layer_2">
	<path d="M468.3,95.2c-8.6,3-435.7,153.5-444.1,156.5c-7.1,2.5-8.7,8.7-0.3,12.1c10.1,4,95.5,38.3,95.5,38.3l0,0l56.6,22.7
		c0,0,272.6-200.2,276.3-202.9c3.7-2.7,8,2.4,5.3,5.3c-2.7,2.9-198,214.1-198,214.1l0,0L248.2,354l15.1,8.1l0,0
		c0,0,117,63,125.3,67.4c7.3,3.9,16.8,0.7,18.9-8.4c2.5-10.7,71.6-308.4,73.1-315C482.6,97.4,476.9,92.2,468.3,95.2z M175.5,460.6
		c0,6.2,3.5,7.9,8.3,3.5c6.3-5.7,71.7-64.4,71.7-64.4l-80-41.4V460.6z"/>
</g>
</svg>
