<?xml version="1.0" encoding="utf-8"?>
<!-- Generator: Adobe Illustrator 18.0.0, SVG Export Plug-In . SVG Version: 6.00 Build 0)  -->
<!DOCTYPE svg PUBLIC "-//W3C//DTD SVG 1.1//EN" "http://www.w3.org/Graphics/SVG/1.1/DTD/svg11.dtd">
<svg version="1.1" id="Layer_1" xmlns="http://www.w3.org/2000/svg" xmlns:xlink="http://www.w3.org/1999/xlink" x="0px" y="0px"
	 viewBox="0 0 187.6 133.2" enable-background="new 0 0 187.6 133.2" xml:space="preserve">
<rect x="51.4" y="23" transform="matrix(0.7071 -0.7071 0.7071 0.7071 -19.277 86.6793)" fill="#FFFFFF" stroke="#000000" stroke-width="7" stroke-miterlimit="10" width="87.2" height="87.2"/>
<g>
	<path d="M69.6,57.4h-1l-1-2.2H63l-1,2.2h-1l3.8-8.5h0.9L69.6,57.4z M65.3,50l-1.9,4.3h3.8L65.3,50z"/>
	<path d="M77.4,49h0.9v8.4h-0.8l-5.4-6.9v6.9h-0.9V49h0.9l5.3,6.7V49z"/>
	<path d="M81.8,49v8.4h-0.9V49H81.8z"/>
	<path d="M88.3,55.1L88.3,55.1l-3.1-4.5v6.8h-0.9V49h1l3.1,4.6l3.1-4.6h1v8.4h-0.9v-6.8L88.3,55.1z"/>
	<path d="M102.5,57.4h-1l-1-2.2h-4.6l-1,2.2h-1l3.8-8.5h0.9L102.5,57.4z M98.2,50l-1.9,4.3h3.8L98.2,50z"/>
	<path d="M106.2,57.4h-1v-7.5h-2.8V49h6.6v0.9h-2.8V57.4z"/>
	<path d="M116.9,49.8h-5.1v2.9h4.6v0.9h-4.6v2.9h5.2v0.9h-6.1V49h6.1V49.8z"/>
	<path d="M121.8,57.4h-2.9V49h2.9c2.6,0,4.5,1.8,4.5,4.2C126.2,55.5,124.4,57.4,121.8,57.4z M121.8,49.9h-2v6.6h2
		c2.1,0,3.5-1.4,3.5-3.3C125.3,51.3,123.9,49.9,121.8,49.9z"/>
	<path d="M76.3,63.4v8.4h-0.9v-8.4H76.3z"/>
	<path d="M82.6,71.9c-2.4,0-4.2-1.9-4.2-4.3c0-2.4,1.8-4.4,4.2-4.4c1.5,0,2.4,0.5,3.3,1.3l-0.6,0.7c-0.7-0.7-1.5-1.2-2.6-1.2
		c-1.9,0-3.3,1.5-3.3,3.5c0,2,1.4,3.5,3.3,3.5c1.2,0,1.9-0.4,2.7-1.2l0.6,0.6C85.1,71.3,84.1,71.9,82.6,71.9z"/>
	<path d="M91.3,71.9c-2.6,0-4.3-2-4.3-4.3c0-2.3,1.7-4.4,4.3-4.4c2.6,0,4.3,2,4.3,4.3C95.6,69.9,93.8,71.9,91.3,71.9z M91.3,64.1
		c-1.9,0-3.3,1.5-3.3,3.5c0,1.9,1.4,3.5,3.3,3.5s3.3-1.5,3.3-3.5S93.2,64.1,91.3,64.1z"/>
	<path d="M103.8,63.4h0.9v8.4h-0.8l-5.4-6.9v6.9h-0.9v-8.4h0.9l5.3,6.7V63.4z"/>
	<path d="M110.1,67.1c1.9,0.4,2.7,1.1,2.7,2.4c0,1.5-1.2,2.4-2.9,2.4c-1.3,0-2.4-0.4-3.4-1.3l0.6-0.7c0.9,0.8,1.7,1.2,2.9,1.2
		c1.1,0,1.9-0.6,1.9-1.4c0-0.8-0.4-1.2-2.2-1.6c-1.9-0.4-2.8-1-2.8-2.4c0-1.3,1.2-2.3,2.8-2.3c1.2,0,2.1,0.3,3,1L112,65
		c-0.8-0.6-1.6-0.9-2.4-0.9c-1.1,0-1.8,0.6-1.8,1.4C107.8,66.3,108.2,66.7,110.1,67.1z"/>
	<path d="M69.1,86.2h-1v-7.5h-2.8v-0.9h6.6v0.9h-2.8V86.2z"/>
	<path d="M77,86.3c-2.6,0-4.3-2-4.3-4.3c0-2.3,1.7-4.4,4.3-4.4c2.6,0,4.3,2,4.3,4.3C81.3,84.3,79.5,86.3,77,86.3z M77,78.5
		c-1.9,0-3.3,1.5-3.3,3.5s1.4,3.5,3.3,3.5s3.3-1.5,3.3-3.5S78.9,78.5,77,78.5z"/>
	<path d="M90.7,86.3c-2.4,0-4.2-1.9-4.2-4.3c0-2.4,1.8-4.4,4.2-4.4c1.5,0,2.4,0.5,3.3,1.3l-0.6,0.7c-0.7-0.7-1.5-1.2-2.6-1.2
		c-1.9,0-3.3,1.5-3.3,3.5c0,2,1.4,3.5,3.3,3.5c1.2,0,1.9-0.4,2.7-1.2l0.6,0.6C93.2,85.7,92.2,86.3,90.7,86.3z"/>
	<path d="M99.4,86.3c-2.6,0-4.3-2-4.3-4.3c0-2.3,1.7-4.4,4.3-4.4c2.6,0,4.3,2,4.3,4.3C103.7,84.3,101.9,86.3,99.4,86.3z M99.4,78.5
		c-1.9,0-3.3,1.5-3.3,3.5s1.4,3.5,3.3,3.5s3.3-1.5,3.3-3.5S101.3,78.5,99.4,78.5z"/>
	<path d="M109.7,83.9L109.7,83.9l-3.1-4.5v6.8h-0.9v-8.4h1l3.1,4.6l3.1-4.6h1v8.4h-0.9v-6.8L109.7,83.9z"/>
	<path d="M122.2,78.6h-5.1v2.9h4.6v0.9h-4.6v2.9h5.2v0.9h-6.1v-8.4h6.1V78.6z"/>
</g>
</svg>
