<?xml version="1.0" encoding="utf-8"?>
<!-- Generator: Adobe Illustrator 18.0.0, SVG Export Plug-In . SVG Version: 6.00 Build 0)  -->
<!DOCTYPE svg PUBLIC "-//W3C//DTD SVG 1.1//EN" "http://www.w3.org/Graphics/SVG/1.1/DTD/svg11.dtd">
<svg version="1.1" xmlns="http://www.w3.org/2000/svg" xmlns:xlink="http://www.w3.org/1999/xlink" x="0px" y="0px"
	 viewBox="0 0 500 500" enable-background="new 0 0 500 500" xml:space="preserve">
<g id="bear" display="none">
	<g display="inline">
		<path d="M479.3,171.9l-30.6-41.6c-1.2-1.7-3.5-2.4-5.4-1.6l-26.8,10L310.7,78.3c-1.2-0.7-2.6-0.8-3.9-0.4l-58.9,20.2l-58.9-20.2
			c-1.3-0.4-2.7-0.3-3.9,0.4L79.3,138.6l-26.8-10c-2-0.7-4.2-0.1-5.4,1.6l-30.6,41.6c-1.1,1.6-1.2,3.7-0.2,5.3l59.9,95.5l-14.4,73.8
			c-0.4,2.1,0.7,4.2,2.6,5.2l134.5,63.6c0.6,0.3,1.3,0.5,2,0.5H295c0.7,0,1.4-0.2,2-0.5l134.5-63.6c1.9-0.9,3-3,2.6-5.2l-14.4-73.8
			l59.9-95.5C480.6,175.5,480.5,173.4,479.3,171.9z M52.5,138.7l21,7.8l2.4,108l-49.9-79.7L52.5,138.7z M293.9,406.3h-92L71.6,344.7
			l14-71.4c0.1-0.3,0.1-0.7,0.1-1l-2.7-124.9l105-59.9l58.4,20c0.5,0.2,1.2,0.3,1.7,0.3s1-0.1,1.5-0.3l58.4-20l105,59.9l-2.7,124.9
			c0,0.3,0,0.7,0.1,1l14,71.4L293.9,406.3z M419.9,254.5l2.4-108l21-7.8l26.6,36.2L419.9,254.5z"/>
		<path d="M305.4,192.8c-1.5,0.8-2.4,2.3-2.5,4l-1.5,32.4c-0.1,1.7,0.7,3.3,2.2,4.2c0.8,0.5,1.7,0.7,2.5,0.7c0.7,0,1.5-0.2,2.2-0.5
			l29.1-15.2c1.5-0.8,2.5-2.3,2.5-4c0.1-1.7-0.8-3.3-2.2-4.2l-27.6-17.2C308.7,192,306.9,192,305.4,192.8z M311.9,205.2l13.8,8.6
			l-14.5,7.6L311.9,205.2z"/>
		<path d="M173.6,133.6l71.4,57.3c0.9,0.7,1.9,1,3,1c1,0,2.1-0.3,2.9-1l71.4-57.3l31.1,17.7l4.7-8.2l-33.8-19.2
			c-1.7-1-3.8-0.8-5.3,0.4l-70.9,57l-70.9-57c-1.5-1.2-3.6-1.4-5.3-0.4l-33.8,19.2l4.7,8.2L173.6,133.6z"/>
		<path d="M394.5,189.8l-66-37.7c-1.7-1-3.8-0.8-5.3,0.4L263,201.2c-1.4,1.1-2,3-1.6,4.8l25.4,106.8L266.4,332L251,318.5
			c-1.8-1.6-4.4-1.6-6.2,0L229.4,332L209,312.8l25.4-106.8c0.4-1.8-0.2-3.6-1.6-4.8l-60.3-48.6c-1.5-1.2-3.6-1.4-5.3-0.4l-66,37.7
			c-1.5,0.9-2.4,2.5-2.4,4.2l0.9,48.8c0,1.4,0.7,2.7,1.8,3.6l36.8,29.6c0.8,0.7,1.9,1,3,1h22.6v39.7c0,0.9,0.3,1.8,0.8,2.6
			l27.6,41.8l-29.4-13.9l-4,8.5l42.1,19.9c1.2,0.5,2.5,0.6,3.7,0.1l43.3-16.3l43.3,16.3c0.5,0.2,1.1,0.3,1.7,0.3
			c0.7,0,1.4-0.2,2-0.5l42.1-19.9l-4-8.5l-29.4,13.9l27.6-41.8c0.5-0.8,0.8-1.7,0.8-2.6v-39.7h22.6c1.1,0,2.1-0.4,3-1l36.8-29.6
			c1.1-0.9,1.7-2.2,1.8-3.6l0.9-48.8C396.9,192.3,396,190.7,394.5,189.8z M386.6,240.5l-33.7,27.2h-25.7c-2.6,0-4.7,2.1-4.7,4.7v43
			l-32.9,49.8l-40-15.1c-1.1-0.4-2.3-0.4-3.3,0l-40,15.1l-32.9-49.8v-43c0-2.6-2.1-4.7-4.7-4.7h-25.7l-33.7-27.2l-0.8-43.8
			l60.8-34.7l55.4,44.7l-25.4,106.6c-0.4,1.6,0.1,3.4,1.4,4.5l25.5,24c1.8,1.7,4.5,1.7,6.3,0.1l15.5-13.6l15.5,13.6
			c1.8,1.6,4.6,1.6,6.3-0.1l25.5-24c1.2-1.2,1.7-2.9,1.4-4.5l-25.4-106.6l55.4-44.7l60.8,34.7L386.6,240.5z"/>
		<path d="M257.5,302.8l-6.4,6.9l11.6,10.7c0.9,0.8,2,1.3,3.2,1.3c1.2,0,2.3-0.4,3.2-1.3l11.7-11c0.9-0.9,1.5-2.1,1.5-3.4
			c0-1.3-0.5-2.5-1.5-3.4l-14-13.2c-0.5-0.5-1.1-0.8-1.7-1l-15.8-5.5c-1-0.3-2.1-0.3-3.1,0l-15.8,5.5c-0.6,0.2-1.2,0.6-1.7,1
			l-14,13.2c-0.9,0.9-1.5,2.1-1.5,3.4c0,1.3,0.5,2.5,1.5,3.4l11.7,11c1.8,1.7,4.6,1.7,6.4,0l11.6-10.7l-6.4-6.9l-8.3,7.7l-4.9-4.6
			l9.6-9.1l13.3-4.6l13.3,4.6l9.6,9.1l-4.9,4.6L257.5,302.8z"/>
		<path d="M190.4,192.8c-1.5-0.8-3.3-0.7-4.7,0.2l-27.6,17.2c-1.4,0.9-2.3,2.5-2.2,4.2c0.1,1.7,1,3.2,2.5,4l29.1,15.2
			c0.7,0.4,1.4,0.5,2.2,0.5c0.9,0,1.8-0.2,2.5-0.7c1.4-0.9,2.2-2.5,2.2-4.2l-1.5-32.4C192.8,195,191.8,193.5,190.4,192.8z
			 M170.1,213.8l13.8-8.6l0.8,16.2L170.1,213.8z"/>
	</g>
</g>
<g id="giraffe">
	<g>
		<path d="M417,65.3l-19.4-44.9c-0.4-1-1.3-1.8-2.3-2.2c-1-0.4-2.2-0.3-3.2,0.2l-43.3,22.7c-0.5,0.3-0.9,0.6-1.2,1l0,0l-23.4,28.6
			h-65.8l-6.5-35.8c-0.3-1.9-2-3.3-3.9-3.3c-1.9,0-3.6,1.4-3.9,3.3l-6.5,35.8h-65.8l-23.4-28.6l0,0c-0.3-0.4-0.7-0.8-1.2-1
			l-43.3-22.7c-1-0.5-2.1-0.6-3.2-0.2c-1,0.4-1.9,1.2-2.3,2.2L78.8,65.3c-0.7,1.5-0.3,3.3,0.9,4.5l51,48v145.9
			c0,1.1,0.4,2.1,1.2,2.8l24.7,24.7v118.2c0,0.9,0.3,1.8,0.9,2.6l20.7,25l-10.9,12.7c-1,1.2-1.3,2.9-0.6,4.3
			c0.7,1.4,2.1,2.3,3.6,2.3h24l14.6,17.6c0.8,0.9,1.9,1.5,3.1,1.5h72c1.2,0,2.3-0.5,3.1-1.5l14.6-17.6h24c1.6,0,3-0.9,3.6-2.3
			c0.7-1.4,0.4-3.1-0.6-4.3L317.6,437l20.7-25c0.6-0.7,0.9-1.6,0.9-2.6V291.3l24.7-24.7c0.7-0.7,1.2-1.7,1.2-2.8V117.9l51-48
			C417.3,68.7,417.7,66.9,417,65.3z M355.1,102.9l-23.9-28.2L348,54.2L355.1,102.9z M243.9,317.5l-35.2-41.7l35.2-195.4V317.5z
			 M251.9,80.4l35.2,195.4l-35.2,41.7V80.4z M164.6,74.7l-23.9,28.2l7.1-48.7L164.6,74.7z M103.8,27.5l37,19.4l-9,61.1l-44.6-42
			L103.8,27.5z M144.3,267.7h12.2v12.2L144.3,267.7z M282,467.4h-68.2l-9.1-11.1h86.5L282,467.4z M331.2,263.7V408l-18.9,22.8
			L297.9,414l17-20.2l-6.1-5.2l-19.2,22.8c-1.3,1.5-1.3,3.7,0,5.2l27.2,31.7H179l27.2-31.7c1.3-1.5,1.3-3.7,0-5.2L187,388.6
			l-6.1,5.2l17,20.2l-14.4,16.8L164.5,408V263.7c0-2.2-1.8-4-4-4h-21.9v-46.3l39.7-47l-6.1-5.2L138.7,201v-83.4l33-38.9H236
			l-35.6,197.5c-0.2,1.2,0.1,2.4,0.9,3.3l43.5,51.5c0.8,0.9,1.9,1.4,3.1,1.4c1.2,0,2.3-0.5,3.1-1.4l43.5-51.5
			c0.8-0.9,1.1-2.1,0.9-3.3L259.7,78.7h64.4l33,38.9V201l-33.5-39.7l-6.1,5.2l39.7,47v46.3h-21.9C333,259.7,331.2,261.5,331.2,263.7
			z M339.2,267.7h12.2l-12.2,12.2V267.7z M364,108l-9-61.1l37-19.4l16.5,38.4L364,108z"/>
		<rect x="307.1" y="101.9" transform="matrix(0.645 0.7642 -0.7642 0.645 198.4248 -215.2472)" width="47.6" height="8"/>
		<rect x="295.3" y="113.5" transform="matrix(0.645 0.7642 -0.7642 0.645 203.1178 -202.1948)" width="47.8" height="8"/>
		<path d="M345.8,240.5H316c-2.2,0-4,1.8-4,4v46.7h8v-42.7h25.8V240.5z"/>
		<rect x="141.1" y="101.9" transform="matrix(0.645 -0.7642 0.7642 0.645 -22.4256 163.6142)" width="47.6" height="8"/>
		<rect x="152.7" y="113.5" transform="matrix(0.645 -0.7642 0.7642 0.645 -27.1106 176.6735)" width="47.8" height="8"/>
		<path d="M179.7,240.5h-29.8v8h25.8v42.7h8v-46.7C183.7,242.3,181.9,240.5,179.7,240.5z"/>
		<path d="M275.1,428.8h-54.5l-5.9-7.2l-6.2,5.1l7.1,8.6c0.8,0.9,1.9,1.4,3.1,1.4H277c1.2,0,2.3-0.5,3.1-1.4l7.1-8.6l-6.2-5.1
			L275.1,428.8z"/>
		<path d="M247.9,387.4l-50.1-59.3l-6.1,5.2l53.1,63c0.8,0.9,1.9,1.4,3.1,1.4c1.2,0,2.3-0.5,3.1-1.4l53.1-63l-6.1-5.2L247.9,387.4z"
			/>
	</g>
</g>
<g id="elephant" display="none">
	<g display="inline">
		<path fill="#8F8F8F" d="M483.8,195.8L384,75.6c-0.7-0.9-1.9-1.3-3-1.2l-76.5,9l-56-9c-0.4-0.1-0.7-0.1-1.1,0l-56,9l-76.5-9
			c-1.1-0.1-2.3,0.3-3,1.2L12,195.8c-0.9,1.1-1,2.5-0.4,3.7l59.4,116.1c0.6,1.1,1.8,1.9,3,1.9h36.7l69.5,33.3l-2.7,5.9h-16.8
			L113.9,327c-1.4-0.9-3.1-0.7-4.3,0.5c-1.1,1.2-1.3,2.9-0.4,4.3l36.2,54.7c0.6,1,1.7,1.5,2.9,1.5h45.4c1.3,0,2.4-0.7,3-1.8
			l18.7-34.8l1.7,0.8l12.5,64.1c0.3,1.6,1.7,2.8,3.4,2.8h30c1.6,0,3-1.2,3.4-2.8l12.5-64.1l1.7-0.8l18.7,34.8c0.6,1.1,1.8,1.8,3,1.8
			h45.4c1.1,0,2.2-0.6,2.9-1.5l36.2-54.7c0.9-1.3,0.7-3.1-0.4-4.3c-1.1-1.2-2.9-1.4-4.3-0.5l-46.6,29.8h-16.8l-2.7-5.9l69.5-33.3
			h36.7c1.3,0,2.5-0.7,3-1.9l59.4-116.1C484.9,198.3,484.7,196.9,483.8,195.8z M342.4,133.6l-31.8-44l64.1-7.6L342.4,133.6z
			 M153.4,133.6l-32.3-51.6l64.1,7.6L153.4,133.6z M112.9,311c-0.5-0.2-1-0.3-1.5-0.3H76L18.7,198.4l95.4-114.8l36,57.5l11.8,37.5
			l-12.8,17.7c-0.4,0.6-0.7,1.3-0.7,2l0.3,43.1c0,0.9,0.3,1.7,0.9,2.3l27.8,29.8l6.5,36l-5.7,20.9c-0.4,1.6,0.3,3.3,1.8,4l6.3,3
			l-3.4,7.2L112.9,311z M191.6,381.1h-41.5l-26.2-39.6l33.8,21.6c0.6,0.4,1.2,0.5,1.8,0.5h20c1.3,0,2.5-0.8,3.1-2l9.9-21.2l16.6,7.9
			L191.6,381.1z M260,412.1h-24.3l-24.2-124l-6.7,1.3l10.6,54.4l-29.8-14.2l25-92.2c0.3-1.1,0-2.4-0.8-3.2L175.3,197l-5,4.7
			l33.2,35.7L188,294.2l-4.1-22.8c-0.1-0.6-0.4-1.2-0.9-1.7l-27.5-29.6l-0.2-40.6l32.7-45.2c0.3-0.5,0.6-1,0.6-1.6l2.3-21.1
			l-6.8-0.7l-2.2,20.2l-15,20.7l-9.9-31.5l36.4-50.3l54.5-8.8l54.5,8.8l36.4,50.3l-9.9,31.5l-15-20.7l-2.2-20.2l-6.8,0.7l2.3,21.1
			c0.1,0.6,0.3,1.2,0.6,1.6l32.7,45.2l-0.2,40.6l-27.5,29.6c-0.4,0.5-0.7,1.1-0.9,1.7l-4.1,22.8l-15.4-56.9l33.2-35.7l-5-4.7
			L286,234.1c-0.8,0.9-1.1,2.1-0.8,3.2l25,92.2l-29.8,14.2l10.6-54.4l-6.7-1.3L260,412.1z M336.2,363.6c0.7,0,1.3-0.2,1.8-0.5
			l33.8-21.6l-26.2,39.6h-41.5l-17.6-32.7l16.6-7.9l9.9,21.2c0.6,1.2,1.8,2,3.1,2H336.2z M419.7,310.7h-35.3c-0.5,0-1,0.1-1.5,0.3
			l-70.1,33.6l-3.4-7.2l6.3-3c1.5-0.7,2.3-2.4,1.8-4l-5.7-20.9l6.5-36l27.8-29.8c0.6-0.6,0.9-1.5,0.9-2.3l0.3-43.1
			c0-0.7-0.2-1.4-0.7-2l-12.8-17.7l11.8-37.5l36-57.5l95.4,114.8L419.7,310.7z"/>
		<path fill="#8F8F8F" d="M303.5,232.3c-0.9,1-1.2,2.5-0.7,3.7c0.5,1.3,1.8,2.1,3.1,2.1h21.8c1.9,0,3.4-1.5,3.4-3.4v-22.8
			c0-1.4-0.9-2.7-2.1-3.2c-1.3-0.5-2.8-0.2-3.7,0.8L303.5,232.3z M324.4,231.3H314l10.4-10.9V231.3z"/>
		<path fill="#8F8F8F" d="M411.9,225.2l6.1,3.2l15.1-28.8c0.6-1.2,0.5-2.7-0.4-3.8L408.6,167l-5.3,4.4l22.6,27L411.9,225.2z"/>
		<path fill="#8F8F8F" d="M365.5,167.4l-5.3,4.4l22.6,27l-14.1,26.8l6.1,3.2L390,200c0.6-1.2,0.5-2.7-0.4-3.8L365.5,167.4z"/>
		<path fill="#8F8F8F" d="M311,187.5l5.5-4.1l-9-12.2c-0.6-0.9-1.7-1.4-2.8-1.4H191c-1.1,0-2.1,0.5-2.8,1.4l-9,12.2l5.5,4.1l8-10.8
			h110.4L311,187.5z"/>
		<path fill="#8F8F8F" d="M290.4,211.1l-6.1-8.5c-0.6-0.9-1.7-1.4-2.8-1.4h-67.2c-1.1,0-2.1,0.5-2.8,1.4l-6.1,8.5l5.5,4l5.1-7h63.7
			l5.1,7L290.4,211.1z"/>
		<path fill="#8F8F8F" d="M166.7,208.7c-1.3,0.5-2.1,1.8-2.1,3.2v22.8c0,1.9,1.5,3.4,3.4,3.4h21.8c1.4,0,2.6-0.8,3.1-2.1
			c0.5-1.3,0.3-2.7-0.7-3.7l-21.8-22.8C169.5,208.5,168,208.2,166.7,208.7z M171.4,220.4l10.4,10.9h-10.4V220.4z"/>
		<path fill="#8F8F8F" d="M87.2,167l-24.1,28.8c-0.9,1.1-1,2.6-0.4,3.8l15.1,28.8l6.1-3.2l-14.1-26.8l22.6-27L87.2,167z"/>
		<path fill="#8F8F8F" d="M130.3,167.4l-24.1,28.8c-0.9,1.1-1,2.6-0.4,3.8l15.1,28.8l6.1-3.2l-14.1-26.8l22.6-27L130.3,167.4z"/>
		<rect x="221.9" y="231.3" fill="#8F8F8F" width="51.9" height="6.8"/>
		<rect x="225.2" y="261.2" fill="#8F8F8F" width="45.3" height="6.8"/>
		<rect x="228" y="291.3" fill="#8F8F8F" width="39.7" height="6.8"/>
		<rect x="231.9" y="321.7" fill="#8F8F8F" width="31.9" height="6.8"/>
		<rect x="235.2" y="351.6" fill="#8F8F8F" width="25.3" height="6.8"/>
		<polygon fill="#8F8F8F" points="238.6,381.5 238.6,388.3 247.9,388.3 257.2,388.3 257.2,381.5 247.9,381.5 		"/>
	</g>
</g>
</svg>
